M48
;DRILL file {Pcbnew (2012-01-19 BZR 3256)-stable} date 19.2.2013 11:45:51
;FORMAT={-:-/ absolute / inch / decimal}
FMAT,2
INCH,TZ
T1C0.025
T2C0.032
T3C0.040
T4C0.065
T5C0.130
%
G90
G05
M72
T1
X3.070Y-2.800
X3.075Y-2.600
X3.075Y-3.100
X3.075Y-3.200
X3.075Y-3.300
X3.075Y-3.550
X3.075Y-3.650
X3.075Y-3.700
X3.075Y-3.800
X3.100Y-4.100
X3.150Y-4.000
X3.160Y-4.200
X3.160Y-4.305
X3.195Y-3.350
X3.225Y-3.160
X3.285Y-3.450
X3.300Y-3.050
X3.370Y-3.900
X3.625Y-4.000
X3.725Y-2.675
X3.725Y-3.400
X3.725Y-4.050
X3.725Y-4.250
X3.900Y-3.300
X4.125Y-3.200
X4.170Y-5.060
X4.175Y-4.300
X4.350Y-5.250
X4.385Y-4.525
X4.385Y-4.975
X4.400Y-5.025
X4.475Y-3.100
X4.505Y-5.125
T2
X3.275Y-4.900
X3.275Y-5.200
X3.375Y-4.900
X3.375Y-5.200
X3.450Y-3.150
X3.450Y-3.250
X3.450Y-3.350
X3.450Y-3.450
X3.450Y-3.550
X3.450Y-3.650
X3.450Y-3.750
X3.450Y-3.850
X3.450Y-3.950
X3.450Y-4.050
X3.450Y-4.150
X3.450Y-4.250
X3.450Y-4.350
X3.450Y-4.450
X3.475Y-4.900
X3.475Y-5.200
X3.575Y-4.900
X3.575Y-5.200
X3.675Y-4.900
X3.675Y-5.200
X3.775Y-4.900
X3.775Y-5.200
X3.790Y-4.665
X3.875Y-4.900
X3.875Y-5.200
X3.990Y-4.665
X4.050Y-3.150
X4.050Y-3.250
X4.050Y-3.350
X4.050Y-3.450
X4.050Y-3.550
X4.050Y-3.650
X4.050Y-3.750
X4.050Y-3.850
X4.050Y-3.950
X4.050Y-4.050
X4.050Y-4.150
X4.050Y-4.250
X4.050Y-4.350
X4.050Y-4.450
X4.275Y-3.550
X4.275Y-3.650
X4.275Y-3.750
X4.275Y-3.850
X4.275Y-3.950
X4.275Y-4.050
X4.275Y-4.150
X4.275Y-4.250
X4.275Y-4.575
X4.275Y-4.675
X4.275Y-4.775
X4.275Y-4.875
X4.275Y-4.975
X4.275Y-5.075
X4.275Y-5.175
X4.315Y-4.410
X4.515Y-4.410
X4.575Y-3.550
X4.575Y-3.650
X4.575Y-3.750
X4.575Y-3.850
X4.575Y-3.950
X4.575Y-4.050
X4.575Y-4.150
X4.575Y-4.250
X4.575Y-4.575
X4.575Y-4.675
X4.575Y-4.775
X4.575Y-4.875
X4.575Y-4.975
X4.575Y-5.075
X4.575Y-5.175
T3
X3.225Y-3.750
X3.225Y-3.850
X3.225Y-3.950
X3.225Y-4.050
X3.225Y-4.150
X3.225Y-4.250
X3.225Y-4.350
X3.225Y-4.450
X3.900Y-2.550
X3.900Y-2.750
X4.375Y-3.200
X4.575Y-3.200
T4
X4.148Y-2.688
X4.168Y-2.983
X4.325Y-2.550
X4.423Y-2.806
X4.522Y-2.897
T5
X3.350Y-2.925
X3.350Y-4.605
X4.250Y-3.375
T0
M30
