G04 (created by PCBNEW-RS274X (2012-01-19 BZR 3256)-stable) date 18.2.2013 23:23:50*
G01*
G70*
G90*
%MOIN*%
G04 Gerber Fmt 3.4, Leading zero omitted, Abs format*
%FSLAX34Y34*%
G04 APERTURE LIST*
%ADD10C,0.006000*%
%ADD11C,0.010000*%
%ADD12R,0.090000X0.062000*%
%ADD13O,0.090000X0.062000*%
%ADD14R,0.062000X0.090000*%
%ADD15O,0.062000X0.090000*%
%ADD16C,0.100000*%
%ADD17C,0.095000*%
%ADD18R,0.300000X0.070000*%
%ADD19R,0.060000X0.060000*%
%ADD20C,0.060000*%
%ADD21R,0.080000X0.080000*%
%ADD22C,0.080000*%
%ADD23C,0.065000*%
%ADD24C,0.180000*%
%ADD25C,0.045000*%
%ADD26C,0.035000*%
%ADD27C,0.030000*%
%ADD28C,0.020000*%
%ADD29C,0.017000*%
%ADD30C,0.025000*%
G04 APERTURE END LIST*
G54D10*
G54D11*
X31029Y-51232D02*
X31057Y-51256D01*
X31143Y-51304D01*
X31200Y-51327D01*
X31286Y-51351D01*
X31429Y-51375D01*
X31543Y-51375D01*
X31686Y-51351D01*
X31771Y-51327D01*
X31829Y-51304D01*
X31914Y-51256D01*
X31943Y-51232D01*
X31314Y-50756D02*
X31286Y-50780D01*
X31257Y-50851D01*
X31257Y-50899D01*
X31286Y-50971D01*
X31343Y-51018D01*
X31400Y-51042D01*
X31514Y-51066D01*
X31600Y-51066D01*
X31714Y-51042D01*
X31771Y-51018D01*
X31829Y-50971D01*
X31857Y-50899D01*
X31857Y-50851D01*
X31829Y-50780D01*
X31800Y-50756D01*
X31029Y-50590D02*
X31057Y-50566D01*
X31143Y-50518D01*
X31200Y-50494D01*
X31286Y-50471D01*
X31429Y-50447D01*
X31543Y-50447D01*
X31686Y-50471D01*
X31771Y-50494D01*
X31829Y-50518D01*
X31914Y-50566D01*
X31943Y-50590D01*
X31857Y-49685D02*
X31429Y-49685D01*
X31343Y-49709D01*
X31286Y-49757D01*
X31257Y-49828D01*
X31257Y-49876D01*
X31257Y-49447D02*
X31657Y-49447D01*
X31857Y-49447D02*
X31829Y-49471D01*
X31800Y-49447D01*
X31829Y-49423D01*
X31857Y-49447D01*
X31800Y-49447D01*
X31257Y-49209D02*
X31657Y-49209D01*
X31857Y-49209D02*
X31829Y-49233D01*
X31800Y-49209D01*
X31829Y-49185D01*
X31857Y-49209D01*
X31800Y-49209D01*
X31257Y-48971D02*
X31657Y-48971D01*
X31857Y-48971D02*
X31829Y-48995D01*
X31800Y-48971D01*
X31829Y-48947D01*
X31857Y-48971D01*
X31800Y-48971D01*
X31257Y-48733D02*
X31657Y-48733D01*
X31543Y-48733D02*
X31600Y-48709D01*
X31629Y-48685D01*
X31657Y-48638D01*
X31657Y-48590D01*
X31257Y-48209D02*
X31571Y-48209D01*
X31629Y-48232D01*
X31657Y-48280D01*
X31657Y-48375D01*
X31629Y-48423D01*
X31286Y-48209D02*
X31257Y-48256D01*
X31257Y-48375D01*
X31286Y-48423D01*
X31343Y-48447D01*
X31400Y-48447D01*
X31457Y-48423D01*
X31486Y-48375D01*
X31486Y-48256D01*
X31514Y-48209D01*
X31800Y-47614D02*
X31829Y-47590D01*
X31857Y-47542D01*
X31857Y-47423D01*
X31829Y-47376D01*
X31800Y-47352D01*
X31743Y-47328D01*
X31686Y-47328D01*
X31600Y-47352D01*
X31257Y-47638D01*
X31257Y-47328D01*
X31857Y-47019D02*
X31857Y-46971D01*
X31829Y-46923D01*
X31800Y-46900D01*
X31743Y-46876D01*
X31629Y-46852D01*
X31486Y-46852D01*
X31371Y-46876D01*
X31314Y-46900D01*
X31286Y-46923D01*
X31257Y-46971D01*
X31257Y-47019D01*
X31286Y-47066D01*
X31314Y-47090D01*
X31371Y-47114D01*
X31486Y-47138D01*
X31629Y-47138D01*
X31743Y-47114D01*
X31800Y-47090D01*
X31829Y-47066D01*
X31857Y-47019D01*
X31257Y-46376D02*
X31257Y-46662D01*
X31257Y-46519D02*
X31857Y-46519D01*
X31771Y-46567D01*
X31714Y-46614D01*
X31686Y-46662D01*
X31800Y-46186D02*
X31829Y-46162D01*
X31857Y-46114D01*
X31857Y-45995D01*
X31829Y-45948D01*
X31800Y-45924D01*
X31743Y-45900D01*
X31686Y-45900D01*
X31600Y-45924D01*
X31257Y-46210D01*
X31257Y-45900D01*
G54D12*
X34500Y-31500D03*
G54D13*
X34500Y-32500D03*
X34500Y-33500D03*
X34500Y-34500D03*
X34500Y-35500D03*
X34500Y-36500D03*
X34500Y-37500D03*
X34500Y-38500D03*
X34500Y-39500D03*
X34500Y-40500D03*
X34500Y-41500D03*
X34500Y-42500D03*
X34500Y-43500D03*
X34500Y-44500D03*
X40500Y-44500D03*
X40500Y-43500D03*
X40500Y-42500D03*
X40500Y-41500D03*
X40500Y-40500D03*
X40500Y-39500D03*
X40500Y-38500D03*
X40500Y-37500D03*
X40500Y-36500D03*
X40500Y-35500D03*
X40500Y-34500D03*
X40500Y-33500D03*
X40500Y-32500D03*
X40500Y-31500D03*
G54D14*
X32750Y-52000D03*
G54D15*
X33750Y-52000D03*
X34750Y-52000D03*
X35750Y-52000D03*
X36750Y-52000D03*
X37750Y-52000D03*
X38750Y-52000D03*
X38750Y-49000D03*
X37750Y-49000D03*
X36750Y-49000D03*
X35750Y-49000D03*
X34750Y-49000D03*
X33750Y-49000D03*
X32750Y-49000D03*
G54D16*
X43250Y-25500D03*
X41478Y-26878D03*
G54D17*
X44234Y-28059D03*
G54D16*
X45219Y-28965D03*
G54D17*
X41675Y-29831D03*
G54D18*
X28700Y-25500D03*
X28700Y-26500D03*
X28700Y-27500D03*
X28700Y-28500D03*
X28700Y-30500D03*
X28700Y-31500D03*
X28700Y-32500D03*
X28700Y-33500D03*
X28700Y-34500D03*
X28700Y-35500D03*
X28700Y-36500D03*
X28700Y-37500D03*
X28700Y-38500D03*
X28700Y-39500D03*
X28700Y-40500D03*
X28700Y-41500D03*
X28700Y-42500D03*
X28700Y-43500D03*
X28700Y-44500D03*
X28700Y-45500D03*
X28700Y-46500D03*
X28700Y-47500D03*
X28700Y-48500D03*
X28700Y-49500D03*
X28700Y-50500D03*
X28700Y-51500D03*
X28700Y-52500D03*
G54D12*
X45750Y-42500D03*
G54D13*
X45750Y-41500D03*
X45750Y-40500D03*
X45750Y-39500D03*
X45750Y-38500D03*
X45750Y-37500D03*
X45750Y-36500D03*
X45750Y-35500D03*
X42750Y-35500D03*
X42750Y-36500D03*
X42750Y-37500D03*
X42750Y-38500D03*
X42750Y-39500D03*
X42750Y-40500D03*
X42750Y-41500D03*
X42750Y-42500D03*
G54D12*
X42750Y-45750D03*
G54D13*
X42750Y-46750D03*
X42750Y-47750D03*
X42750Y-48750D03*
X42750Y-49750D03*
X42750Y-50750D03*
X42750Y-51750D03*
X45750Y-51750D03*
X45750Y-50750D03*
X45750Y-49750D03*
X45750Y-48750D03*
X45750Y-47750D03*
X45750Y-46750D03*
X45750Y-45750D03*
G54D19*
X32250Y-44500D03*
G54D20*
X32250Y-43500D03*
X32250Y-42500D03*
X32250Y-41500D03*
X32250Y-40500D03*
X32250Y-39500D03*
X32250Y-38500D03*
X32250Y-37500D03*
G54D21*
X43750Y-32000D03*
G54D22*
X45750Y-32000D03*
G54D21*
X39000Y-25500D03*
G54D22*
X39000Y-27500D03*
G54D23*
X43150Y-44100D03*
X45150Y-44100D03*
X37900Y-46650D03*
X39900Y-46650D03*
G54D24*
X42500Y-33750D03*
X33500Y-29250D03*
X33500Y-46050D03*
G54D25*
X37250Y-42500D03*
X31950Y-33500D03*
X37250Y-40500D03*
X39000Y-33000D03*
X30700Y-28000D03*
X31000Y-41000D03*
G54D26*
X31600Y-42000D03*
X31600Y-43050D03*
X36250Y-40000D03*
X32850Y-34500D03*
X30750Y-26000D03*
X41750Y-43000D03*
X41250Y-32000D03*
X32250Y-31600D03*
X33700Y-39000D03*
X43850Y-45250D03*
X43850Y-49750D03*
X30750Y-31000D03*
X30750Y-32000D03*
X30750Y-33000D03*
X30750Y-35500D03*
X30750Y-36500D03*
G54D25*
X30750Y-37000D03*
X30750Y-38000D03*
X31500Y-40000D03*
G54D26*
X37250Y-34000D03*
G54D25*
X44750Y-31000D03*
X45050Y-51250D03*
X33000Y-30500D03*
X41700Y-50600D03*
X43500Y-52500D03*
X44000Y-50250D03*
X37250Y-26750D03*
G54D27*
X31950Y-33500D02*
X34500Y-33500D01*
X28700Y-27500D02*
X30250Y-27500D01*
G54D28*
X33250Y-48250D02*
X39750Y-48250D01*
G54D27*
X32750Y-48750D02*
X33250Y-48250D01*
X30250Y-27500D02*
X30700Y-28000D01*
X35750Y-33500D02*
X34500Y-33500D01*
X42750Y-42500D02*
X40500Y-42500D01*
G54D28*
X32750Y-49000D02*
X32750Y-48750D01*
G54D27*
X42750Y-45750D02*
X43750Y-45750D01*
X43750Y-45750D02*
X45750Y-45750D01*
X43750Y-48500D02*
X43750Y-45750D01*
X40250Y-48750D02*
X42750Y-48750D01*
X43500Y-48750D02*
X43750Y-48500D01*
G54D28*
X39750Y-48250D02*
X40250Y-48750D01*
G54D27*
X39000Y-33000D02*
X36250Y-33000D01*
X42750Y-48750D02*
X43500Y-48750D01*
X40500Y-42500D02*
X37250Y-42500D01*
X37250Y-40500D02*
X40500Y-40500D01*
X36250Y-33000D02*
X35750Y-33500D01*
G54D29*
X45250Y-39500D02*
X45750Y-39500D01*
X37000Y-40000D02*
X44750Y-40000D01*
X36000Y-41000D02*
X37000Y-40000D01*
X44750Y-40000D02*
X45250Y-39500D01*
X31000Y-41000D02*
X36000Y-41000D01*
X44400Y-40500D02*
X45750Y-40500D01*
X43900Y-41000D02*
X44400Y-40500D01*
X37300Y-41000D02*
X43900Y-41000D01*
X36300Y-42000D02*
X37300Y-41000D01*
X31600Y-42000D02*
X36300Y-42000D01*
X45500Y-40500D02*
X45750Y-40500D01*
G54D28*
X36500Y-43500D02*
X36000Y-44000D01*
G54D29*
X31500Y-44000D02*
X35250Y-44000D01*
X31000Y-44500D02*
X31500Y-44000D01*
G54D28*
X36000Y-44000D02*
X35250Y-44000D01*
X36500Y-43500D02*
X40500Y-43500D01*
G54D30*
X28700Y-44500D02*
X31000Y-44500D01*
G54D29*
X44650Y-41500D02*
X45750Y-41500D01*
X44150Y-42000D02*
X44650Y-41500D01*
X36950Y-42000D02*
X44150Y-42000D01*
X35950Y-43000D02*
X36950Y-42000D01*
X31650Y-43000D02*
X35950Y-43000D01*
X31600Y-43050D02*
X31650Y-43000D01*
X45500Y-41500D02*
X45750Y-41500D01*
X45750Y-38500D02*
X45250Y-38500D01*
X43750Y-39000D02*
X37250Y-39000D01*
X37250Y-39000D02*
X36250Y-40000D01*
X45250Y-38500D02*
X43750Y-39000D01*
X32850Y-34500D02*
X28700Y-34500D01*
X30250Y-25500D02*
X30750Y-26000D01*
X28700Y-25500D02*
X30250Y-25500D01*
X45250Y-43000D02*
X41750Y-43000D01*
X45250Y-43000D02*
X45750Y-42500D01*
X40850Y-30850D02*
X41250Y-31250D01*
X41250Y-31250D02*
X41250Y-32000D01*
X33650Y-30850D02*
X40850Y-30850D01*
X32250Y-31600D02*
X32900Y-31600D01*
X32900Y-31600D02*
X33650Y-30850D01*
X35500Y-39000D02*
X33700Y-39000D01*
X44750Y-38000D02*
X45250Y-37500D01*
X35500Y-39000D02*
X36500Y-38000D01*
X45750Y-37500D02*
X45250Y-37500D01*
X36500Y-38000D02*
X44750Y-38000D01*
X43550Y-44950D02*
X40950Y-44950D01*
X43850Y-45250D02*
X43550Y-44950D01*
X42750Y-49750D02*
X43850Y-49750D01*
X40950Y-44950D02*
X40500Y-44500D01*
X35750Y-32000D02*
X36250Y-31500D01*
X30750Y-31000D02*
X31750Y-32000D01*
X36250Y-31500D02*
X40500Y-31500D01*
X31750Y-32000D02*
X35750Y-32000D01*
X31750Y-33000D02*
X35750Y-33000D01*
X30750Y-32000D02*
X31750Y-33000D01*
X35750Y-33000D02*
X36250Y-32500D01*
X36250Y-32500D02*
X40500Y-32500D01*
X31750Y-34000D02*
X35750Y-34000D01*
X30750Y-33000D02*
X31750Y-34000D01*
X36250Y-33500D02*
X40500Y-33500D01*
X35750Y-34000D02*
X36250Y-33500D01*
X36250Y-34500D02*
X40500Y-34500D01*
X30750Y-35500D02*
X33250Y-35500D01*
X33750Y-35000D02*
X35750Y-35000D01*
X33250Y-35500D02*
X33750Y-35000D01*
X35750Y-35000D02*
X36250Y-34500D01*
X33750Y-36000D02*
X35750Y-36000D01*
X36250Y-35500D02*
X40500Y-35500D01*
X33250Y-36500D02*
X33750Y-36000D01*
X30750Y-36500D02*
X33250Y-36500D01*
X35750Y-36000D02*
X36250Y-35500D01*
X30750Y-37000D02*
X35750Y-37000D01*
X35750Y-37000D02*
X36250Y-36500D01*
X40500Y-36500D02*
X36250Y-36500D01*
X30750Y-38000D02*
X35750Y-38000D01*
X35750Y-38000D02*
X36250Y-37500D01*
X40500Y-37500D02*
X36250Y-37500D01*
G54D28*
X40500Y-38500D02*
X36750Y-38500D01*
X35250Y-40000D02*
X35250Y-40000D01*
G54D29*
X35250Y-40000D02*
X31500Y-40000D01*
G54D28*
X36750Y-38500D02*
X35250Y-40000D01*
G54D29*
X35750Y-34500D02*
X36250Y-34000D01*
X36250Y-34000D02*
X37250Y-34000D01*
X34500Y-34500D02*
X35750Y-34500D01*
G54D27*
X44700Y-51750D02*
X42750Y-51750D01*
X38000Y-30500D02*
X41250Y-30500D01*
X41750Y-31000D02*
X44750Y-31000D01*
X41250Y-30500D02*
X41750Y-31000D01*
X38000Y-27250D02*
X38000Y-30500D01*
X38750Y-52000D02*
X41250Y-52000D01*
X44700Y-51750D02*
X45050Y-51250D01*
X38750Y-26500D02*
X38000Y-27250D01*
X41500Y-51750D02*
X42750Y-51750D01*
X41000Y-25500D02*
X40000Y-26500D01*
X28700Y-31500D02*
X28700Y-30500D01*
X28700Y-30500D02*
X33000Y-30500D01*
X41250Y-52000D02*
X41500Y-51750D01*
X40000Y-26500D02*
X38750Y-26500D01*
X33000Y-30500D02*
X38000Y-30500D01*
X43250Y-25500D02*
X41000Y-25500D01*
G54D29*
X37400Y-50600D02*
X41700Y-50600D01*
G54D30*
X36750Y-51250D02*
X36750Y-52000D01*
G54D29*
X36750Y-51250D02*
X37400Y-50600D01*
X42750Y-47750D02*
X39000Y-47750D01*
X39000Y-47750D02*
X37900Y-46650D01*
G54D30*
X42000Y-28500D02*
X40750Y-28500D01*
X42465Y-28965D02*
X42000Y-28500D01*
X39750Y-27500D02*
X39000Y-27500D01*
X45219Y-28965D02*
X42465Y-28965D01*
X40750Y-28500D02*
X39750Y-27500D01*
G54D29*
X36250Y-52750D02*
X42750Y-52750D01*
X33750Y-52500D02*
X34000Y-52750D01*
X35750Y-52000D02*
X36250Y-52750D01*
G54D30*
X33750Y-52000D02*
X33750Y-52500D01*
G54D29*
X42750Y-52750D02*
X43500Y-52500D01*
X34000Y-52750D02*
X36250Y-52750D01*
G54D30*
X32750Y-51000D02*
X32750Y-52000D01*
G54D29*
X42300Y-50250D02*
X44000Y-50250D01*
X32750Y-51000D02*
X33600Y-50150D01*
X42200Y-50150D02*
X42300Y-50250D01*
X33600Y-50150D02*
X42200Y-50150D01*
G54D30*
X32250Y-43500D02*
X34500Y-43500D01*
X32250Y-44500D02*
X34500Y-44500D01*
X34500Y-42500D02*
X32250Y-42500D01*
X32250Y-41500D02*
X34500Y-41500D01*
X32250Y-40500D02*
X34500Y-40500D01*
X32250Y-39500D02*
X34500Y-39500D01*
X34500Y-38500D02*
X32250Y-38500D01*
X32250Y-37500D02*
X34500Y-37500D01*
G54D29*
X38500Y-25500D02*
X39000Y-25500D01*
X37250Y-26750D02*
X38500Y-25500D01*
M02*
