G04 (created by PCBNEW-RS274X (2012-01-19 BZR 3256)-stable) date 18.2.2013 23:23:50*
G01*
G70*
G90*
%MOIN*%
G04 Gerber Fmt 3.4, Leading zero omitted, Abs format*
%FSLAX34Y34*%
G04 APERTURE LIST*
%ADD10C,0.006000*%
%ADD11C,0.012000*%
%ADD12C,0.015000*%
%ADD13C,0.013000*%
%ADD14C,0.005000*%
%ADD15C,0.011300*%
%ADD16C,0.008000*%
G04 APERTURE END LIST*
G54D10*
G54D11*
X44269Y-25171D02*
X44221Y-25143D01*
X44150Y-25143D01*
X44078Y-25171D01*
X44031Y-25229D01*
X44007Y-25286D01*
X43983Y-25400D01*
X43983Y-25486D01*
X44007Y-25600D01*
X44031Y-25657D01*
X44078Y-25714D01*
X44150Y-25743D01*
X44198Y-25743D01*
X44269Y-25714D01*
X44293Y-25686D01*
X44293Y-25486D01*
X44198Y-25486D01*
X44507Y-25743D02*
X44507Y-25143D01*
X44793Y-25743D01*
X44793Y-25143D01*
X45031Y-25743D02*
X45031Y-25143D01*
X45150Y-25143D01*
X45222Y-25171D01*
X45269Y-25229D01*
X45293Y-25286D01*
X45317Y-25400D01*
X45317Y-25486D01*
X45293Y-25600D01*
X45269Y-25657D01*
X45222Y-25714D01*
X45150Y-25743D01*
X45031Y-25743D01*
X42884Y-29343D02*
X42717Y-29057D01*
X42598Y-29343D02*
X42598Y-28743D01*
X42789Y-28743D01*
X42836Y-28771D01*
X42860Y-28800D01*
X42884Y-28857D01*
X42884Y-28943D01*
X42860Y-29000D01*
X42836Y-29029D01*
X42789Y-29057D01*
X42598Y-29057D01*
X43098Y-29343D02*
X43098Y-28743D01*
X43598Y-28771D02*
X43550Y-28743D01*
X43479Y-28743D01*
X43407Y-28771D01*
X43360Y-28829D01*
X43336Y-28886D01*
X43312Y-29000D01*
X43312Y-29086D01*
X43336Y-29200D01*
X43360Y-29257D01*
X43407Y-29314D01*
X43479Y-29343D01*
X43527Y-29343D01*
X43598Y-29314D01*
X43622Y-29286D01*
X43622Y-29086D01*
X43527Y-29086D01*
X43836Y-29343D02*
X43836Y-28743D01*
X43836Y-29029D02*
X44122Y-29029D01*
X44122Y-29343D02*
X44122Y-28743D01*
X44289Y-28743D02*
X44574Y-28743D01*
X44431Y-29343D02*
X44431Y-28743D01*
X41424Y-28193D02*
X41186Y-28193D01*
X41186Y-27593D01*
X41591Y-27879D02*
X41758Y-27879D01*
X41829Y-28193D02*
X41591Y-28193D01*
X41591Y-27593D01*
X41829Y-27593D01*
X42210Y-27879D02*
X42043Y-27879D01*
X42043Y-28193D02*
X42043Y-27593D01*
X42281Y-27593D01*
X42401Y-27593D02*
X42686Y-27593D01*
X42543Y-28193D02*
X42543Y-27593D01*
X40176Y-50444D02*
X40710Y-50444D01*
X40557Y-50444D02*
X40633Y-50472D01*
X40671Y-50501D01*
X40710Y-50558D01*
X40710Y-50615D01*
X40214Y-51043D02*
X40176Y-50986D01*
X40176Y-50872D01*
X40214Y-50815D01*
X40290Y-50786D01*
X40595Y-50786D01*
X40671Y-50815D01*
X40710Y-50872D01*
X40710Y-50986D01*
X40671Y-51043D01*
X40595Y-51072D01*
X40519Y-51072D01*
X40443Y-50786D01*
X40710Y-51272D02*
X40176Y-51415D01*
X40710Y-51557D01*
X40252Y-51786D02*
X40214Y-51814D01*
X40176Y-51786D01*
X40214Y-51757D01*
X40252Y-51786D01*
X40176Y-51786D01*
X40976Y-52015D02*
X40976Y-52386D01*
X40671Y-52186D01*
X40671Y-52272D01*
X40633Y-52329D01*
X40595Y-52358D01*
X40519Y-52386D01*
X40329Y-52386D01*
X40252Y-52358D01*
X40214Y-52329D01*
X40176Y-52272D01*
X40176Y-52100D01*
X40214Y-52043D01*
X40252Y-52015D01*
G54D12*
X41364Y-45979D02*
X41326Y-46065D01*
X41326Y-46208D01*
X41364Y-46265D01*
X41402Y-46294D01*
X41479Y-46322D01*
X41555Y-46322D01*
X41631Y-46294D01*
X41669Y-46265D01*
X41707Y-46208D01*
X41745Y-46094D01*
X41783Y-46036D01*
X41821Y-46008D01*
X41898Y-45979D01*
X41974Y-45979D01*
X42050Y-46008D01*
X42088Y-46036D01*
X42126Y-46094D01*
X42126Y-46236D01*
X42088Y-46322D01*
X41326Y-46579D02*
X41860Y-46579D01*
X42126Y-46579D02*
X42088Y-46550D01*
X42050Y-46579D01*
X42088Y-46607D01*
X42126Y-46579D01*
X42050Y-46579D01*
X41326Y-46865D02*
X41860Y-46865D01*
X41783Y-46865D02*
X41821Y-46893D01*
X41860Y-46951D01*
X41860Y-47036D01*
X41821Y-47093D01*
X41745Y-47122D01*
X41326Y-47122D01*
X41745Y-47122D02*
X41821Y-47151D01*
X41860Y-47208D01*
X41860Y-47293D01*
X41821Y-47351D01*
X41745Y-47379D01*
X41326Y-47379D01*
X41860Y-47665D02*
X41060Y-47665D01*
X41821Y-47665D02*
X41860Y-47722D01*
X41860Y-47836D01*
X41821Y-47893D01*
X41783Y-47922D01*
X41707Y-47951D01*
X41479Y-47951D01*
X41402Y-47922D01*
X41364Y-47893D01*
X41326Y-47836D01*
X41326Y-47722D01*
X41364Y-47665D01*
X41326Y-48294D02*
X41364Y-48236D01*
X41440Y-48208D01*
X42126Y-48208D01*
X41364Y-48750D02*
X41326Y-48693D01*
X41326Y-48579D01*
X41364Y-48522D01*
X41440Y-48493D01*
X41745Y-48493D01*
X41821Y-48522D01*
X41860Y-48579D01*
X41860Y-48693D01*
X41821Y-48750D01*
X41745Y-48779D01*
X41669Y-48779D01*
X41593Y-48493D01*
X41555Y-49464D02*
X41555Y-49750D01*
X41326Y-49407D02*
X42126Y-49607D01*
X41326Y-49807D01*
X41707Y-50121D02*
X41326Y-50121D01*
X42126Y-49921D02*
X41707Y-50121D01*
X42126Y-50321D01*
X41326Y-50978D02*
X42126Y-50978D01*
X41745Y-51464D02*
X41745Y-51264D01*
X41326Y-51264D02*
X42126Y-51264D01*
X42126Y-51550D01*
G54D13*
X38176Y-39123D02*
X38976Y-39223D01*
X38976Y-39451D01*
X38938Y-39504D01*
X38900Y-39527D01*
X38824Y-39547D01*
X38710Y-39532D01*
X38633Y-39494D01*
X38595Y-39461D01*
X38557Y-39398D01*
X38557Y-39170D01*
X38176Y-40066D02*
X38557Y-39913D01*
X38176Y-39723D02*
X38976Y-39823D01*
X38976Y-40051D01*
X38938Y-40104D01*
X38900Y-40127D01*
X38824Y-40147D01*
X38710Y-40132D01*
X38633Y-40094D01*
X38595Y-40061D01*
X38557Y-39998D01*
X38557Y-39770D01*
X38976Y-40537D02*
X38976Y-40651D01*
X38938Y-40704D01*
X38862Y-40751D01*
X38710Y-40760D01*
X38443Y-40727D01*
X38290Y-40680D01*
X38214Y-40613D01*
X38176Y-40551D01*
X38176Y-40437D01*
X38214Y-40384D01*
X38290Y-40337D01*
X38443Y-40327D01*
X38710Y-40360D01*
X38862Y-40408D01*
X38938Y-40475D01*
X38976Y-40537D01*
X38976Y-40966D02*
X38976Y-41309D01*
X38176Y-41038D02*
X38976Y-41138D01*
X38976Y-41623D02*
X38976Y-41737D01*
X38938Y-41790D01*
X38862Y-41837D01*
X38710Y-41846D01*
X38443Y-41813D01*
X38290Y-41766D01*
X38214Y-41699D01*
X38176Y-41637D01*
X38176Y-41523D01*
X38214Y-41470D01*
X38290Y-41423D01*
X38443Y-41413D01*
X38710Y-41446D01*
X38862Y-41494D01*
X38938Y-41561D01*
X38976Y-41623D01*
X38976Y-42052D02*
X38976Y-42395D01*
X38176Y-42124D02*
X38976Y-42224D01*
X38557Y-42656D02*
X38176Y-42609D01*
X38976Y-42509D02*
X38557Y-42656D01*
X38976Y-42909D01*
X38176Y-43009D02*
X38976Y-43109D01*
X38976Y-43337D01*
X38938Y-43390D01*
X38900Y-43413D01*
X38824Y-43433D01*
X38710Y-43418D01*
X38633Y-43380D01*
X38595Y-43347D01*
X38557Y-43284D01*
X38557Y-43056D01*
G54D12*
X38000Y-30500D02*
X38000Y-30500D01*
X38000Y-30500D02*
X38000Y-31000D01*
X38000Y-31000D02*
X37000Y-31000D01*
X37000Y-31000D02*
X37000Y-30500D01*
X40000Y-30500D02*
X40000Y-45500D01*
X40000Y-45500D02*
X35000Y-45500D01*
X35000Y-45500D02*
X35000Y-30500D01*
X35000Y-30500D02*
X40000Y-30500D01*
X31750Y-49500D02*
X39750Y-49500D01*
X39750Y-51500D02*
X31750Y-51500D01*
X31750Y-51500D02*
X31750Y-49500D01*
X31750Y-50000D02*
X32250Y-50000D01*
X32250Y-50000D02*
X32250Y-51000D01*
X32250Y-51000D02*
X31750Y-51000D01*
X39750Y-49500D02*
X39750Y-51500D01*
X42108Y-23335D02*
X42108Y-24713D01*
X44392Y-23335D02*
X44392Y-24713D01*
X45533Y-24713D02*
X45533Y-30224D01*
X45533Y-30224D02*
X40967Y-30224D01*
X40967Y-30224D02*
X40967Y-24713D01*
X44392Y-23335D02*
X42108Y-23335D01*
X45533Y-24713D02*
X40967Y-24713D01*
X30700Y-24500D02*
X30700Y-53400D01*
X27200Y-24500D02*
X27200Y-53500D01*
X27200Y-53500D02*
X30700Y-53500D01*
X30700Y-24500D02*
X27200Y-24500D01*
X43750Y-43500D02*
X43750Y-43500D01*
X43750Y-43500D02*
X43750Y-43000D01*
X43750Y-43000D02*
X44750Y-43000D01*
X44750Y-43000D02*
X44750Y-43500D01*
X43250Y-43500D02*
X43250Y-34500D01*
X43250Y-34500D02*
X45250Y-34500D01*
X45250Y-34500D02*
X45250Y-43500D01*
X45250Y-43500D02*
X43250Y-43500D01*
X45250Y-44750D02*
X45250Y-52750D01*
X43250Y-52750D02*
X43250Y-44750D01*
X43250Y-44750D02*
X45250Y-44750D01*
X44750Y-44750D02*
X44750Y-45250D01*
X44750Y-45250D02*
X43750Y-45250D01*
X43750Y-45250D02*
X43750Y-44750D01*
X45250Y-52750D02*
X43250Y-52750D01*
G54D11*
X31750Y-45000D02*
X31750Y-37000D01*
X31750Y-37000D02*
X32750Y-37000D01*
X32750Y-37000D02*
X32750Y-45000D01*
X31750Y-45000D02*
X32750Y-45000D01*
X32750Y-37000D02*
X31750Y-37000D01*
X46500Y-32000D02*
X46466Y-32339D01*
X46367Y-32666D01*
X46207Y-32968D01*
X45991Y-33233D01*
X45728Y-33450D01*
X45428Y-33613D01*
X45101Y-33714D01*
X44762Y-33749D01*
X44423Y-33719D01*
X44095Y-33622D01*
X43792Y-33464D01*
X43526Y-33250D01*
X43307Y-32988D01*
X43142Y-32689D01*
X43039Y-32363D01*
X43001Y-32024D01*
X43029Y-31685D01*
X43123Y-31356D01*
X43280Y-31053D01*
X43492Y-30785D01*
X43752Y-30563D01*
X44050Y-30397D01*
X44375Y-30291D01*
X44714Y-30251D01*
X45053Y-30277D01*
X45382Y-30369D01*
X45687Y-30523D01*
X45956Y-30733D01*
X46180Y-30992D01*
X46348Y-31289D01*
X46456Y-31613D01*
X46499Y-31952D01*
X46500Y-32000D01*
X40750Y-26500D02*
X40716Y-26839D01*
X40617Y-27166D01*
X40457Y-27468D01*
X40241Y-27733D01*
X39978Y-27950D01*
X39678Y-28113D01*
X39351Y-28214D01*
X39012Y-28249D01*
X38673Y-28219D01*
X38345Y-28122D01*
X38042Y-27964D01*
X37776Y-27750D01*
X37557Y-27488D01*
X37392Y-27189D01*
X37289Y-26863D01*
X37251Y-26524D01*
X37279Y-26185D01*
X37373Y-25856D01*
X37530Y-25553D01*
X37742Y-25285D01*
X38002Y-25063D01*
X38300Y-24897D01*
X38625Y-24791D01*
X38964Y-24751D01*
X39303Y-24777D01*
X39632Y-24869D01*
X39937Y-25023D01*
X40206Y-25233D01*
X40430Y-25492D01*
X40598Y-25789D01*
X40706Y-26113D01*
X40749Y-26452D01*
X40750Y-26500D01*
G54D14*
X35500Y-50050D02*
X35500Y-50950D01*
X35500Y-50950D02*
X36150Y-50950D01*
X36850Y-50050D02*
X37500Y-50050D01*
X37500Y-50050D02*
X37500Y-50950D01*
X37500Y-50950D02*
X36850Y-50950D01*
X36150Y-50050D02*
X35500Y-50050D01*
X40500Y-48150D02*
X39600Y-48150D01*
X39600Y-48150D02*
X39600Y-48800D01*
X40500Y-49500D02*
X40500Y-50150D01*
X40500Y-50150D02*
X39600Y-50150D01*
X39600Y-50150D02*
X39600Y-49500D01*
X40500Y-48800D02*
X40500Y-48150D01*
X36300Y-46000D02*
X35400Y-46000D01*
X35400Y-46000D02*
X35400Y-46650D01*
X36300Y-47350D02*
X36300Y-48000D01*
X36300Y-48000D02*
X35400Y-48000D01*
X35400Y-48000D02*
X35400Y-47350D01*
X36300Y-46650D02*
X36300Y-46000D01*
X36450Y-35000D02*
X35550Y-35000D01*
X35550Y-35000D02*
X35550Y-35650D01*
X36450Y-36350D02*
X36450Y-37000D01*
X36450Y-37000D02*
X35550Y-37000D01*
X35550Y-37000D02*
X35550Y-36350D01*
X36450Y-35650D02*
X36450Y-35000D01*
X37700Y-34250D02*
X36800Y-34250D01*
X36800Y-34250D02*
X36800Y-34900D01*
X37700Y-35600D02*
X37700Y-36250D01*
X37700Y-36250D02*
X36800Y-36250D01*
X36800Y-36250D02*
X36800Y-35600D01*
X37700Y-34900D02*
X37700Y-34250D01*
X32450Y-25000D02*
X31550Y-25000D01*
X31550Y-25000D02*
X31550Y-25650D01*
X32450Y-26350D02*
X32450Y-27000D01*
X32450Y-27000D02*
X31550Y-27000D01*
X31550Y-27000D02*
X31550Y-26350D01*
X32450Y-25650D02*
X32450Y-25000D01*
X36750Y-25950D02*
X36750Y-25050D01*
X36750Y-25050D02*
X36100Y-25050D01*
X35400Y-25950D02*
X34750Y-25950D01*
X34750Y-25950D02*
X34750Y-25050D01*
X34750Y-25050D02*
X35400Y-25050D01*
X36100Y-25950D02*
X36750Y-25950D01*
X37250Y-28450D02*
X37250Y-27550D01*
X37250Y-27550D02*
X36600Y-27550D01*
X35900Y-28450D02*
X35250Y-28450D01*
X35250Y-28450D02*
X35250Y-27550D01*
X35250Y-27550D02*
X35900Y-27550D01*
X36600Y-28450D02*
X37250Y-28450D01*
X36750Y-27200D02*
X36750Y-26300D01*
X36750Y-26300D02*
X36100Y-26300D01*
X35400Y-27200D02*
X34750Y-27200D01*
X34750Y-27200D02*
X34750Y-26300D01*
X34750Y-26300D02*
X35400Y-26300D01*
X36100Y-27200D02*
X36750Y-27200D01*
X37500Y-29700D02*
X37500Y-28800D01*
X37500Y-28800D02*
X36850Y-28800D01*
X36150Y-29700D02*
X35500Y-29700D01*
X35500Y-29700D02*
X35500Y-28800D01*
X35500Y-28800D02*
X36150Y-28800D01*
X36850Y-29700D02*
X37500Y-29700D01*
G54D11*
X42750Y-43700D02*
X45550Y-43700D01*
X45550Y-43700D02*
X45550Y-44500D01*
X45550Y-44500D02*
X42750Y-44500D01*
X42750Y-44500D02*
X42750Y-43700D01*
X42750Y-43900D02*
X42950Y-43700D01*
G54D12*
X40150Y-47650D02*
X37650Y-47650D01*
X37650Y-45650D02*
X40150Y-45650D01*
X36650Y-46650D02*
X36654Y-46737D01*
X36666Y-46823D01*
X36685Y-46908D01*
X36711Y-46992D01*
X36744Y-47072D01*
X36784Y-47149D01*
X36831Y-47223D01*
X36884Y-47292D01*
X36943Y-47357D01*
X37008Y-47416D01*
X37077Y-47469D01*
X37151Y-47516D01*
X37228Y-47556D01*
X37308Y-47589D01*
X37392Y-47615D01*
X37477Y-47634D01*
X37563Y-47646D01*
X37650Y-47650D01*
X37650Y-45650D02*
X37563Y-45654D01*
X37477Y-45666D01*
X37392Y-45685D01*
X37308Y-45711D01*
X37228Y-45744D01*
X37151Y-45784D01*
X37077Y-45831D01*
X37008Y-45884D01*
X36943Y-45943D01*
X36884Y-46008D01*
X36831Y-46077D01*
X36784Y-46151D01*
X36744Y-46228D01*
X36711Y-46308D01*
X36685Y-46392D01*
X36666Y-46477D01*
X36654Y-46563D01*
X36650Y-46650D01*
X41150Y-46650D02*
X41146Y-46563D01*
X41134Y-46477D01*
X41115Y-46392D01*
X41089Y-46308D01*
X41056Y-46228D01*
X41016Y-46151D01*
X40969Y-46077D01*
X40916Y-46008D01*
X40857Y-45943D01*
X40792Y-45884D01*
X40723Y-45831D01*
X40650Y-45784D01*
X40572Y-45744D01*
X40492Y-45711D01*
X40408Y-45685D01*
X40323Y-45666D01*
X40237Y-45654D01*
X40150Y-45650D01*
X40150Y-47650D02*
X40237Y-47646D01*
X40323Y-47634D01*
X40408Y-47615D01*
X40492Y-47589D01*
X40572Y-47556D01*
X40650Y-47516D01*
X40723Y-47469D01*
X40792Y-47416D01*
X40857Y-47357D01*
X40916Y-47292D01*
X40969Y-47223D01*
X41016Y-47149D01*
X41056Y-47072D01*
X41089Y-46992D01*
X41115Y-46908D01*
X41134Y-46823D01*
X41146Y-46737D01*
X41150Y-46650D01*
G54D15*
X38583Y-34043D02*
X39150Y-34043D01*
X39217Y-34021D01*
X39250Y-34000D01*
X39283Y-33957D01*
X39283Y-33871D01*
X39250Y-33829D01*
X39217Y-33807D01*
X39150Y-33786D01*
X38583Y-33786D01*
X39283Y-33336D02*
X39283Y-33593D01*
X39283Y-33465D02*
X38583Y-33465D01*
X38683Y-33508D01*
X38750Y-33550D01*
X38783Y-33593D01*
G54D11*
X35783Y-44151D02*
X35783Y-43817D01*
X35983Y-44217D02*
X35283Y-43984D01*
X35983Y-43751D01*
X35650Y-43384D02*
X35983Y-43384D01*
X35283Y-43617D02*
X35650Y-43384D01*
X35283Y-43151D01*
X35717Y-42917D02*
X35717Y-42384D01*
X35283Y-42117D02*
X35283Y-41684D01*
X35550Y-41917D01*
X35550Y-41817D01*
X35583Y-41750D01*
X35617Y-41717D01*
X35683Y-41684D01*
X35850Y-41684D01*
X35917Y-41717D01*
X35950Y-41750D01*
X35983Y-41817D01*
X35983Y-42017D01*
X35950Y-42084D01*
X35917Y-42117D01*
X35717Y-41383D02*
X35717Y-40850D01*
X35583Y-40416D02*
X35550Y-40483D01*
X35517Y-40516D01*
X35450Y-40550D01*
X35417Y-40550D01*
X35350Y-40516D01*
X35317Y-40483D01*
X35283Y-40416D01*
X35283Y-40283D01*
X35317Y-40216D01*
X35350Y-40183D01*
X35417Y-40150D01*
X35450Y-40150D01*
X35517Y-40183D01*
X35550Y-40216D01*
X35583Y-40283D01*
X35583Y-40416D01*
X35617Y-40483D01*
X35650Y-40516D01*
X35717Y-40550D01*
X35850Y-40550D01*
X35917Y-40516D01*
X35950Y-40483D01*
X35983Y-40416D01*
X35983Y-40283D01*
X35950Y-40216D01*
X35917Y-40183D01*
X35850Y-40150D01*
X35717Y-40150D01*
X35650Y-40183D01*
X35617Y-40216D01*
X35583Y-40283D01*
X35983Y-39816D02*
X35983Y-39683D01*
X35950Y-39616D01*
X35917Y-39583D01*
X35817Y-39516D01*
X35683Y-39483D01*
X35417Y-39483D01*
X35350Y-39516D01*
X35317Y-39549D01*
X35283Y-39616D01*
X35283Y-39749D01*
X35317Y-39816D01*
X35350Y-39849D01*
X35417Y-39883D01*
X35583Y-39883D01*
X35650Y-39849D01*
X35683Y-39816D01*
X35717Y-39749D01*
X35717Y-39616D01*
X35683Y-39549D01*
X35650Y-39516D01*
X35583Y-39483D01*
X35983Y-38816D02*
X35983Y-39216D01*
X35983Y-39016D02*
X35283Y-39016D01*
X35383Y-39082D01*
X35450Y-39149D01*
X35483Y-39216D01*
X35350Y-38549D02*
X35317Y-38515D01*
X35283Y-38449D01*
X35283Y-38282D01*
X35317Y-38215D01*
X35350Y-38182D01*
X35417Y-38149D01*
X35483Y-38149D01*
X35583Y-38182D01*
X35983Y-38582D01*
X35983Y-38149D01*
G54D15*
X38407Y-49793D02*
X38407Y-50279D01*
X38429Y-50336D01*
X38450Y-50364D01*
X38493Y-50393D01*
X38579Y-50393D01*
X38621Y-50364D01*
X38643Y-50336D01*
X38664Y-50279D01*
X38664Y-49793D01*
X38835Y-49793D02*
X39114Y-49793D01*
X38964Y-50021D01*
X39028Y-50021D01*
X39071Y-50050D01*
X39092Y-50079D01*
X39114Y-50136D01*
X39114Y-50279D01*
X39092Y-50336D01*
X39071Y-50364D01*
X39028Y-50393D01*
X38900Y-50393D01*
X38857Y-50364D01*
X38835Y-50336D01*
X32560Y-50593D02*
X32860Y-50593D01*
X32667Y-51193D01*
X33225Y-50793D02*
X33225Y-51193D01*
X33118Y-50564D02*
X33011Y-50993D01*
X33289Y-50993D01*
X33675Y-51193D02*
X33461Y-51193D01*
X33461Y-50593D01*
X33804Y-51164D02*
X33868Y-51193D01*
X33975Y-51193D01*
X34018Y-51164D01*
X34039Y-51136D01*
X34061Y-51079D01*
X34061Y-51021D01*
X34039Y-50964D01*
X34018Y-50936D01*
X33975Y-50907D01*
X33889Y-50879D01*
X33847Y-50850D01*
X33825Y-50821D01*
X33804Y-50764D01*
X33804Y-50707D01*
X33825Y-50650D01*
X33847Y-50621D01*
X33889Y-50593D01*
X33997Y-50593D01*
X34061Y-50621D01*
X34340Y-50593D02*
X34383Y-50593D01*
X34426Y-50621D01*
X34447Y-50650D01*
X34468Y-50707D01*
X34490Y-50821D01*
X34490Y-50964D01*
X34468Y-51079D01*
X34447Y-51136D01*
X34426Y-51164D01*
X34383Y-51193D01*
X34340Y-51193D01*
X34297Y-51164D01*
X34276Y-51136D01*
X34254Y-51079D01*
X34233Y-50964D01*
X34233Y-50821D01*
X34254Y-50707D01*
X34276Y-50650D01*
X34297Y-50621D01*
X34340Y-50593D01*
X34769Y-50593D02*
X34812Y-50593D01*
X34855Y-50621D01*
X34876Y-50650D01*
X34897Y-50707D01*
X34919Y-50821D01*
X34919Y-50964D01*
X34897Y-51079D01*
X34876Y-51136D01*
X34855Y-51164D01*
X34812Y-51193D01*
X34769Y-51193D01*
X34726Y-51164D01*
X34705Y-51136D01*
X34683Y-51079D01*
X34662Y-50964D01*
X34662Y-50821D01*
X34683Y-50707D01*
X34705Y-50650D01*
X34726Y-50621D01*
X34769Y-50593D01*
G54D11*
X44693Y-27350D02*
X45121Y-27350D01*
X45207Y-27378D01*
X45264Y-27435D01*
X45293Y-27521D01*
X45293Y-27578D01*
X45293Y-26750D02*
X45293Y-27093D01*
X45293Y-26921D02*
X44693Y-26921D01*
X44779Y-26978D01*
X44836Y-27036D01*
X44864Y-27093D01*
G54D16*
X45702Y-28349D02*
X46060Y-28349D01*
X46131Y-28369D01*
X46179Y-28407D01*
X46202Y-28464D01*
X46202Y-28502D01*
X46060Y-28178D02*
X46060Y-27987D01*
X46202Y-28216D02*
X45702Y-28083D01*
X46202Y-27949D01*
X46155Y-27587D02*
X46179Y-27606D01*
X46202Y-27663D01*
X46202Y-27701D01*
X46179Y-27759D01*
X46131Y-27797D01*
X46083Y-27816D01*
X45988Y-27835D01*
X45917Y-27835D01*
X45821Y-27816D01*
X45774Y-27797D01*
X45726Y-27759D01*
X45702Y-27701D01*
X45702Y-27663D01*
X45726Y-27606D01*
X45750Y-27587D01*
X46202Y-27416D02*
X45702Y-27416D01*
X46202Y-27187D02*
X45917Y-27359D01*
X45702Y-27187D02*
X45988Y-27416D01*
X46250Y-27111D02*
X46250Y-26806D01*
X45702Y-26749D02*
X45702Y-26501D01*
X45893Y-26635D01*
X45893Y-26577D01*
X45917Y-26539D01*
X45940Y-26520D01*
X45988Y-26501D01*
X46107Y-26501D01*
X46155Y-26520D01*
X46179Y-26539D01*
X46202Y-26577D01*
X46202Y-26692D01*
X46179Y-26730D01*
X46155Y-26749D01*
X46155Y-26330D02*
X46179Y-26311D01*
X46202Y-26330D01*
X46179Y-26349D01*
X46155Y-26330D01*
X46202Y-26330D01*
X45702Y-25949D02*
X45702Y-26140D01*
X45940Y-26159D01*
X45917Y-26140D01*
X45893Y-26102D01*
X45893Y-26006D01*
X45917Y-25968D01*
X45940Y-25949D01*
X45988Y-25930D01*
X46107Y-25930D01*
X46155Y-25949D01*
X46179Y-25968D01*
X46202Y-26006D01*
X46202Y-26102D01*
X46179Y-26140D01*
X46155Y-26159D01*
X46202Y-25759D02*
X45702Y-25759D01*
X46060Y-25625D01*
X45702Y-25492D01*
X46202Y-25492D01*
X46202Y-25302D02*
X45702Y-25302D01*
X46060Y-25168D01*
X45702Y-25035D01*
X46202Y-25035D01*
G54D11*
X30943Y-35020D02*
X30943Y-34620D01*
X31543Y-35020D01*
X31543Y-34620D01*
X30943Y-34449D02*
X31543Y-34049D01*
X30943Y-34049D02*
X31543Y-34449D01*
X31543Y-33507D02*
X31543Y-33850D01*
X31543Y-33678D02*
X30943Y-33678D01*
X31029Y-33735D01*
X31086Y-33793D01*
X31114Y-33850D01*
G54D15*
X43493Y-41843D02*
X43979Y-41843D01*
X44036Y-41821D01*
X44064Y-41800D01*
X44093Y-41757D01*
X44093Y-41671D01*
X44064Y-41629D01*
X44036Y-41607D01*
X43979Y-41586D01*
X43493Y-41586D01*
X43550Y-41393D02*
X43521Y-41372D01*
X43493Y-41329D01*
X43493Y-41222D01*
X43521Y-41179D01*
X43550Y-41158D01*
X43607Y-41136D01*
X43664Y-41136D01*
X43750Y-41158D01*
X44093Y-41415D01*
X44093Y-41136D01*
X44393Y-39905D02*
X44393Y-39605D01*
X44993Y-39798D01*
X44593Y-39240D02*
X44993Y-39240D01*
X44364Y-39347D02*
X44793Y-39454D01*
X44793Y-39176D01*
X44993Y-38790D02*
X44993Y-39004D01*
X44393Y-39004D01*
X44964Y-38661D02*
X44993Y-38597D01*
X44993Y-38490D01*
X44964Y-38447D01*
X44936Y-38426D01*
X44879Y-38404D01*
X44821Y-38404D01*
X44764Y-38426D01*
X44736Y-38447D01*
X44707Y-38490D01*
X44679Y-38576D01*
X44650Y-38618D01*
X44621Y-38640D01*
X44564Y-38661D01*
X44507Y-38661D01*
X44450Y-38640D01*
X44421Y-38618D01*
X44393Y-38576D01*
X44393Y-38468D01*
X44421Y-38404D01*
X44993Y-37975D02*
X44993Y-38232D01*
X44993Y-38104D02*
X44393Y-38104D01*
X44479Y-38147D01*
X44536Y-38189D01*
X44564Y-38232D01*
X44393Y-37825D02*
X44393Y-37546D01*
X44621Y-37696D01*
X44621Y-37632D01*
X44650Y-37589D01*
X44679Y-37568D01*
X44736Y-37546D01*
X44879Y-37546D01*
X44936Y-37568D01*
X44964Y-37589D01*
X44993Y-37632D01*
X44993Y-37760D01*
X44964Y-37803D01*
X44936Y-37825D01*
X44650Y-37289D02*
X44621Y-37331D01*
X44593Y-37353D01*
X44536Y-37374D01*
X44507Y-37374D01*
X44450Y-37353D01*
X44421Y-37331D01*
X44393Y-37289D01*
X44393Y-37203D01*
X44421Y-37160D01*
X44450Y-37139D01*
X44507Y-37117D01*
X44536Y-37117D01*
X44593Y-37139D01*
X44621Y-37160D01*
X44650Y-37203D01*
X44650Y-37289D01*
X44679Y-37331D01*
X44707Y-37353D01*
X44764Y-37374D01*
X44879Y-37374D01*
X44936Y-37353D01*
X44964Y-37331D01*
X44993Y-37289D01*
X44993Y-37203D01*
X44964Y-37160D01*
X44936Y-37139D01*
X44879Y-37117D01*
X44764Y-37117D01*
X44707Y-37139D01*
X44679Y-37160D01*
X44650Y-37203D01*
X44393Y-46693D02*
X44879Y-46693D01*
X44936Y-46671D01*
X44964Y-46650D01*
X44993Y-46607D01*
X44993Y-46521D01*
X44964Y-46479D01*
X44936Y-46457D01*
X44879Y-46436D01*
X44393Y-46436D01*
X44593Y-46029D02*
X44993Y-46029D01*
X44364Y-46136D02*
X44793Y-46243D01*
X44793Y-45965D01*
X43493Y-49440D02*
X43493Y-49140D01*
X44093Y-49333D01*
X43693Y-48775D02*
X44093Y-48775D01*
X43464Y-48882D02*
X43893Y-48989D01*
X43893Y-48711D01*
X44093Y-48325D02*
X44093Y-48539D01*
X43493Y-48539D01*
X44064Y-48196D02*
X44093Y-48132D01*
X44093Y-48025D01*
X44064Y-47982D01*
X44036Y-47961D01*
X43979Y-47939D01*
X43921Y-47939D01*
X43864Y-47961D01*
X43836Y-47982D01*
X43807Y-48025D01*
X43779Y-48111D01*
X43750Y-48153D01*
X43721Y-48175D01*
X43664Y-48196D01*
X43607Y-48196D01*
X43550Y-48175D01*
X43521Y-48153D01*
X43493Y-48111D01*
X43493Y-48003D01*
X43521Y-47939D01*
X43493Y-47789D02*
X43493Y-47489D01*
X44093Y-47682D01*
X43693Y-47124D02*
X44093Y-47124D01*
X43464Y-47231D02*
X43893Y-47338D01*
X43893Y-47060D01*
G54D16*
X31512Y-43745D02*
X31112Y-43745D01*
X31112Y-43592D01*
X31131Y-43554D01*
X31150Y-43535D01*
X31188Y-43516D01*
X31245Y-43516D01*
X31283Y-43535D01*
X31302Y-43554D01*
X31321Y-43592D01*
X31321Y-43745D01*
X31512Y-43135D02*
X31512Y-43364D01*
X31512Y-43250D02*
X31112Y-43250D01*
X31169Y-43288D01*
X31207Y-43326D01*
X31226Y-43364D01*
X33298Y-42476D02*
X33298Y-42285D01*
X33412Y-42514D02*
X33012Y-42381D01*
X33412Y-42247D01*
X33012Y-42114D02*
X33336Y-42114D01*
X33374Y-42095D01*
X33393Y-42076D01*
X33412Y-42038D01*
X33412Y-41961D01*
X33393Y-41923D01*
X33374Y-41904D01*
X33336Y-41885D01*
X33012Y-41885D01*
X33012Y-41733D02*
X33412Y-41466D01*
X33012Y-41466D02*
X33412Y-41733D01*
X33450Y-41409D02*
X33450Y-41104D01*
X33374Y-40780D02*
X33393Y-40799D01*
X33412Y-40856D01*
X33412Y-40894D01*
X33393Y-40952D01*
X33355Y-40990D01*
X33317Y-41009D01*
X33240Y-41028D01*
X33183Y-41028D01*
X33107Y-41009D01*
X33069Y-40990D01*
X33031Y-40952D01*
X33012Y-40894D01*
X33012Y-40856D01*
X33031Y-40799D01*
X33050Y-40780D01*
X33012Y-40533D02*
X33012Y-40456D01*
X33031Y-40418D01*
X33069Y-40380D01*
X33145Y-40361D01*
X33279Y-40361D01*
X33355Y-40380D01*
X33393Y-40418D01*
X33412Y-40456D01*
X33412Y-40533D01*
X33393Y-40571D01*
X33355Y-40609D01*
X33279Y-40628D01*
X33145Y-40628D01*
X33069Y-40609D01*
X33031Y-40571D01*
X33012Y-40533D01*
X33412Y-40190D02*
X33012Y-40190D01*
X33412Y-39961D01*
X33012Y-39961D01*
X33412Y-39771D02*
X33012Y-39771D01*
X33412Y-39542D01*
X33012Y-39542D01*
X44684Y-33124D02*
X44665Y-33143D01*
X44608Y-33162D01*
X44570Y-33162D01*
X44512Y-33143D01*
X44474Y-33105D01*
X44455Y-33067D01*
X44436Y-32990D01*
X44436Y-32933D01*
X44455Y-32857D01*
X44474Y-32819D01*
X44512Y-32781D01*
X44570Y-32762D01*
X44608Y-32762D01*
X44665Y-32781D01*
X44684Y-32800D01*
X45027Y-32762D02*
X44950Y-32762D01*
X44912Y-32781D01*
X44893Y-32800D01*
X44855Y-32857D01*
X44836Y-32933D01*
X44836Y-33086D01*
X44855Y-33124D01*
X44874Y-33143D01*
X44912Y-33162D01*
X44989Y-33162D01*
X45027Y-33143D01*
X45046Y-33124D01*
X45065Y-33086D01*
X45065Y-32990D01*
X45046Y-32952D01*
X45027Y-32933D01*
X44989Y-32914D01*
X44912Y-32914D01*
X44874Y-32933D01*
X44855Y-32952D01*
X44836Y-32990D01*
X44189Y-30895D02*
X44189Y-31162D01*
X44093Y-30743D02*
X43998Y-31029D01*
X44246Y-31029D01*
X44417Y-31143D02*
X44417Y-31162D01*
X44398Y-31200D01*
X44379Y-31219D01*
X44550Y-30762D02*
X44817Y-30762D01*
X44645Y-31162D01*
X45141Y-30895D02*
X45141Y-31162D01*
X44969Y-30895D02*
X44969Y-31105D01*
X44988Y-31143D01*
X45026Y-31162D01*
X45084Y-31162D01*
X45122Y-31143D01*
X45141Y-31124D01*
X45465Y-30952D02*
X45331Y-30952D01*
X45331Y-31162D02*
X45331Y-30762D01*
X45522Y-30762D01*
X38124Y-26566D02*
X38143Y-26585D01*
X38162Y-26642D01*
X38162Y-26680D01*
X38143Y-26738D01*
X38105Y-26776D01*
X38067Y-26795D01*
X37990Y-26814D01*
X37933Y-26814D01*
X37857Y-26795D01*
X37819Y-26776D01*
X37781Y-26738D01*
X37762Y-26680D01*
X37762Y-26642D01*
X37781Y-26585D01*
X37800Y-26566D01*
X37762Y-26433D02*
X37762Y-26166D01*
X38162Y-26338D01*
X39895Y-27061D02*
X40162Y-27061D01*
X39743Y-27157D02*
X40029Y-27252D01*
X40029Y-27004D01*
X40143Y-26833D02*
X40162Y-26833D01*
X40200Y-26852D01*
X40219Y-26871D01*
X39762Y-26700D02*
X39762Y-26433D01*
X40162Y-26605D01*
X39895Y-26109D02*
X40162Y-26109D01*
X39895Y-26281D02*
X40105Y-26281D01*
X40143Y-26262D01*
X40162Y-26224D01*
X40162Y-26166D01*
X40143Y-26128D01*
X40124Y-26109D01*
X39952Y-25785D02*
X39952Y-25919D01*
X40162Y-25919D02*
X39762Y-25919D01*
X39762Y-25728D01*
G54D14*
X36450Y-50593D02*
X36436Y-50607D01*
X36393Y-50621D01*
X36364Y-50621D01*
X36321Y-50607D01*
X36293Y-50579D01*
X36278Y-50550D01*
X36264Y-50493D01*
X36264Y-50450D01*
X36278Y-50393D01*
X36293Y-50364D01*
X36321Y-50336D01*
X36364Y-50321D01*
X36393Y-50321D01*
X36436Y-50336D01*
X36450Y-50350D01*
X36736Y-50621D02*
X36564Y-50621D01*
X36650Y-50621D02*
X36650Y-50321D01*
X36621Y-50364D01*
X36593Y-50393D01*
X36564Y-50407D01*
X40171Y-49200D02*
X40029Y-49300D01*
X40171Y-49372D02*
X39871Y-49372D01*
X39871Y-49257D01*
X39886Y-49229D01*
X39900Y-49214D01*
X39929Y-49200D01*
X39971Y-49200D01*
X40000Y-49214D01*
X40014Y-49229D01*
X40029Y-49257D01*
X40029Y-49372D01*
X40171Y-48914D02*
X40171Y-49086D01*
X40171Y-49000D02*
X39871Y-49000D01*
X39914Y-49029D01*
X39943Y-49057D01*
X39957Y-49086D01*
X35971Y-47050D02*
X35829Y-47150D01*
X35971Y-47222D02*
X35671Y-47222D01*
X35671Y-47107D01*
X35686Y-47079D01*
X35700Y-47064D01*
X35729Y-47050D01*
X35771Y-47050D01*
X35800Y-47064D01*
X35814Y-47079D01*
X35829Y-47107D01*
X35829Y-47222D01*
X35700Y-46936D02*
X35686Y-46922D01*
X35671Y-46893D01*
X35671Y-46822D01*
X35686Y-46793D01*
X35700Y-46779D01*
X35729Y-46764D01*
X35757Y-46764D01*
X35800Y-46779D01*
X35971Y-46950D01*
X35971Y-46764D01*
X36121Y-36050D02*
X35979Y-36150D01*
X36121Y-36222D02*
X35821Y-36222D01*
X35821Y-36107D01*
X35836Y-36079D01*
X35850Y-36064D01*
X35879Y-36050D01*
X35921Y-36050D01*
X35950Y-36064D01*
X35964Y-36079D01*
X35979Y-36107D01*
X35979Y-36222D01*
X35821Y-35950D02*
X35821Y-35764D01*
X35936Y-35864D01*
X35936Y-35822D01*
X35950Y-35793D01*
X35964Y-35779D01*
X35993Y-35764D01*
X36064Y-35764D01*
X36093Y-35779D01*
X36107Y-35793D01*
X36121Y-35822D01*
X36121Y-35907D01*
X36107Y-35936D01*
X36093Y-35950D01*
X37371Y-35300D02*
X37229Y-35400D01*
X37371Y-35472D02*
X37071Y-35472D01*
X37071Y-35357D01*
X37086Y-35329D01*
X37100Y-35314D01*
X37129Y-35300D01*
X37171Y-35300D01*
X37200Y-35314D01*
X37214Y-35329D01*
X37229Y-35357D01*
X37229Y-35472D01*
X37171Y-35043D02*
X37371Y-35043D01*
X37057Y-35114D02*
X37271Y-35186D01*
X37271Y-35000D01*
X32121Y-26050D02*
X31979Y-26150D01*
X32121Y-26222D02*
X31821Y-26222D01*
X31821Y-26107D01*
X31836Y-26079D01*
X31850Y-26064D01*
X31879Y-26050D01*
X31921Y-26050D01*
X31950Y-26064D01*
X31964Y-26079D01*
X31979Y-26107D01*
X31979Y-26222D01*
X31821Y-25779D02*
X31821Y-25922D01*
X31964Y-25936D01*
X31950Y-25922D01*
X31936Y-25893D01*
X31936Y-25822D01*
X31950Y-25793D01*
X31964Y-25779D01*
X31993Y-25764D01*
X32064Y-25764D01*
X32093Y-25779D01*
X32107Y-25793D01*
X32121Y-25822D01*
X32121Y-25893D01*
X32107Y-25922D01*
X32093Y-25936D01*
X35700Y-25621D02*
X35600Y-25479D01*
X35528Y-25621D02*
X35528Y-25321D01*
X35643Y-25321D01*
X35671Y-25336D01*
X35686Y-25350D01*
X35700Y-25379D01*
X35700Y-25421D01*
X35686Y-25450D01*
X35671Y-25464D01*
X35643Y-25479D01*
X35528Y-25479D01*
X35800Y-25321D02*
X36000Y-25321D01*
X35871Y-25621D01*
X36200Y-28121D02*
X36100Y-27979D01*
X36028Y-28121D02*
X36028Y-27821D01*
X36143Y-27821D01*
X36171Y-27836D01*
X36186Y-27850D01*
X36200Y-27879D01*
X36200Y-27921D01*
X36186Y-27950D01*
X36171Y-27964D01*
X36143Y-27979D01*
X36028Y-27979D01*
X36371Y-27950D02*
X36343Y-27936D01*
X36328Y-27921D01*
X36314Y-27893D01*
X36314Y-27879D01*
X36328Y-27850D01*
X36343Y-27836D01*
X36371Y-27821D01*
X36428Y-27821D01*
X36457Y-27836D01*
X36471Y-27850D01*
X36486Y-27879D01*
X36486Y-27893D01*
X36471Y-27921D01*
X36457Y-27936D01*
X36428Y-27950D01*
X36371Y-27950D01*
X36343Y-27964D01*
X36328Y-27979D01*
X36314Y-28007D01*
X36314Y-28064D01*
X36328Y-28093D01*
X36343Y-28107D01*
X36371Y-28121D01*
X36428Y-28121D01*
X36457Y-28107D01*
X36471Y-28093D01*
X36486Y-28064D01*
X36486Y-28007D01*
X36471Y-27979D01*
X36457Y-27964D01*
X36428Y-27950D01*
X35700Y-26871D02*
X35600Y-26729D01*
X35528Y-26871D02*
X35528Y-26571D01*
X35643Y-26571D01*
X35671Y-26586D01*
X35686Y-26600D01*
X35700Y-26629D01*
X35700Y-26671D01*
X35686Y-26700D01*
X35671Y-26714D01*
X35643Y-26729D01*
X35528Y-26729D01*
X35957Y-26571D02*
X35900Y-26571D01*
X35871Y-26586D01*
X35857Y-26600D01*
X35828Y-26643D01*
X35814Y-26700D01*
X35814Y-26814D01*
X35828Y-26843D01*
X35843Y-26857D01*
X35871Y-26871D01*
X35928Y-26871D01*
X35957Y-26857D01*
X35971Y-26843D01*
X35986Y-26814D01*
X35986Y-26743D01*
X35971Y-26714D01*
X35957Y-26700D01*
X35928Y-26686D01*
X35871Y-26686D01*
X35843Y-26700D01*
X35828Y-26714D01*
X35814Y-26743D01*
X36450Y-29371D02*
X36350Y-29229D01*
X36278Y-29371D02*
X36278Y-29071D01*
X36393Y-29071D01*
X36421Y-29086D01*
X36436Y-29100D01*
X36450Y-29129D01*
X36450Y-29171D01*
X36436Y-29200D01*
X36421Y-29214D01*
X36393Y-29229D01*
X36278Y-29229D01*
X36593Y-29371D02*
X36650Y-29371D01*
X36678Y-29357D01*
X36693Y-29343D01*
X36721Y-29300D01*
X36736Y-29243D01*
X36736Y-29129D01*
X36721Y-29100D01*
X36707Y-29086D01*
X36678Y-29071D01*
X36621Y-29071D01*
X36593Y-29086D01*
X36578Y-29100D01*
X36564Y-29129D01*
X36564Y-29200D01*
X36578Y-29229D01*
X36593Y-29243D01*
X36621Y-29257D01*
X36678Y-29257D01*
X36707Y-29243D01*
X36721Y-29229D01*
X36736Y-29200D01*
G54D16*
X44084Y-44224D02*
X44065Y-44243D01*
X44008Y-44262D01*
X43970Y-44262D01*
X43912Y-44243D01*
X43874Y-44205D01*
X43855Y-44167D01*
X43836Y-44090D01*
X43836Y-44033D01*
X43855Y-43957D01*
X43874Y-43919D01*
X43912Y-43881D01*
X43970Y-43862D01*
X44008Y-43862D01*
X44065Y-43881D01*
X44084Y-43900D01*
X44236Y-43900D02*
X44255Y-43881D01*
X44293Y-43862D01*
X44389Y-43862D01*
X44427Y-43881D01*
X44446Y-43900D01*
X44465Y-43938D01*
X44465Y-43976D01*
X44446Y-44033D01*
X44217Y-44262D01*
X44465Y-44262D01*
X38576Y-45862D02*
X38843Y-46262D01*
X38843Y-45862D02*
X38576Y-46262D01*
X39205Y-46262D02*
X38976Y-46262D01*
X39090Y-46262D02*
X39090Y-45862D01*
X39052Y-45919D01*
X39014Y-45957D01*
X38976Y-45976D01*
G54D10*
X37449Y-47062D02*
X37635Y-47062D01*
X37535Y-47214D01*
X37577Y-47214D01*
X37606Y-47233D01*
X37620Y-47252D01*
X37635Y-47290D01*
X37635Y-47386D01*
X37620Y-47424D01*
X37606Y-47443D01*
X37577Y-47462D01*
X37492Y-47462D01*
X37463Y-47443D01*
X37449Y-47424D01*
X37763Y-47424D02*
X37778Y-47443D01*
X37763Y-47462D01*
X37749Y-47443D01*
X37763Y-47424D01*
X37763Y-47462D01*
X38049Y-47062D02*
X37906Y-47062D01*
X37892Y-47252D01*
X37906Y-47233D01*
X37935Y-47214D01*
X38006Y-47214D01*
X38035Y-47233D01*
X38049Y-47252D01*
X38064Y-47290D01*
X38064Y-47386D01*
X38049Y-47424D01*
X38035Y-47443D01*
X38006Y-47462D01*
X37935Y-47462D01*
X37906Y-47443D01*
X37892Y-47424D01*
X38164Y-47062D02*
X38364Y-47062D01*
X38235Y-47462D01*
X38493Y-47462D02*
X38550Y-47462D01*
X38578Y-47443D01*
X38593Y-47424D01*
X38621Y-47367D01*
X38636Y-47290D01*
X38636Y-47138D01*
X38621Y-47100D01*
X38607Y-47081D01*
X38578Y-47062D01*
X38521Y-47062D01*
X38493Y-47081D01*
X38478Y-47100D01*
X38464Y-47138D01*
X38464Y-47233D01*
X38478Y-47271D01*
X38493Y-47290D01*
X38521Y-47310D01*
X38578Y-47310D01*
X38607Y-47290D01*
X38621Y-47271D01*
X38636Y-47233D01*
X38907Y-47062D02*
X38764Y-47062D01*
X38750Y-47252D01*
X38764Y-47233D01*
X38793Y-47214D01*
X38864Y-47214D01*
X38893Y-47233D01*
X38907Y-47252D01*
X38922Y-47290D01*
X38922Y-47386D01*
X38907Y-47424D01*
X38893Y-47443D01*
X38864Y-47462D01*
X38793Y-47462D01*
X38764Y-47443D01*
X38750Y-47424D01*
X39179Y-47195D02*
X39179Y-47462D01*
X39108Y-47043D02*
X39036Y-47329D01*
X39222Y-47329D01*
X39265Y-47500D02*
X39494Y-47500D01*
X39565Y-47462D02*
X39565Y-47062D01*
X39665Y-47348D01*
X39765Y-47062D01*
X39765Y-47462D01*
X39908Y-47462D02*
X39908Y-47062D01*
X39908Y-47252D02*
X40080Y-47252D01*
X40080Y-47462D02*
X40080Y-47062D01*
X40194Y-47195D02*
X40351Y-47195D01*
X40194Y-47462D01*
X40351Y-47462D01*
M02*
